<?xml version="1.0" encoding="utf-8"?>
<!-- Generator: Adobe Illustrator 23.0.2, SVG Export Plug-In . SVG Version: 6.00 Build 0)  -->
<svg version="1.1" id="Capa_1" xmlns="http://www.w3.org/2000/svg" xmlns:xlink="http://www.w3.org/1999/xlink" x="0px" y="0px"
	 viewBox="0 0 455.4 455.4" style="enable-background:new 0 0 455.4 455.4;" xml:space="preserve">
<style type="text/css">
	.st0{fill:#17B27F;}
	.st1{fill:#8EE0C5;}
	.st2{fill:#6DAFE0;}
</style>
<path class="st0" d="M405.5,412.8c-69.7,56.9-287.3,56.9-355.6,0c-69.7-56.9-62.6-300.1,0-364.1s293-64,355.6,0
	S475.2,355.9,405.5,412.8z"/>
<path class="st1" d="M229.1,313.2C166.6,363,96.9,388.6,31.4,390C-16.9,307.5-7,107,49.9,48.7c51.2-52.6,211.9-62.6,304.4-29.9
	C377,112.7,330.1,232.1,229.1,313.2z"/>
<path class="st2" d="M100,94.9"/>
<g>
	<g>
		<path d="M78.2,328.7c3.7,5.1,8.8,6.2,13.1,2.7l66.1-52.8l62,117.4c2.3,4.3,5.6,6.8,9.1,6.8s6.8-2.5,9.1-6.8l62-117.4l66.1,52.8
			c4.3,3.5,9.5,2.4,13.1-2.7c3.7-5.1,5.1-13.3,3.7-20.9L336.6,60c-1.5-8.4-6.2-14.1-11.5-14.1l-193.1,0c-5.3,0-10,5.7-11.5,14.1
			L74.5,307.9C73.1,315.4,74.6,323.6,78.2,328.7z M140.9,85.6l175.2,0l35.2,190.3l-49.5-39.6c-4.9-3.9-10.8-1.9-14.4,4.8
			l-58.9,111.6l-58.9-111.6c-3.6-6.8-9.5-8.8-14.4-4.8l-49.5,39.6L140.9,85.6z"/>
	</g>
</g>
</svg>
